<?xml version="1.0" standalone="no"?>
<!DOCTYPE svg PUBLIC "-//W3C//DTD SVG 20010904//EN"
 "http://www.w3.org/TR/2001/REC-SVG-20010904/DTD/svg10.dtd">
<svg version="1.0" xmlns="http://www.w3.org/2000/svg"
 width="1024.000000pt" height="1024.000000pt" viewBox="0 0 1024.000000 1024.000000"
 preserveAspectRatio="xMidYMid meet">

<g transform="translate(0.000000,1024.000000) scale(0.100000,-0.100000)"
fill="#000000" stroke="none">
<path d="M4970 10154 c-14 -2 -65 -12 -115 -20 -269 -47 -593 -208 -885 -440
-112 -89 -424 -402 -533 -534 -182 -222 -384 -508 -547 -775 -431 -706 -825
-1634 -882 -2072 -10 -80 -10 -101 5 -166 56 -237 351 -707 755 -1202 l90
-110 -129 -7 c-182 -9 -214 -18 -304 -90 -97 -77 -174 -171 -210 -256 -28 -64
-30 -75 -33 -242 l-4 -175 -46 -35 c-70 -52 -225 -204 -302 -295 -138 -164
-258 -351 -375 -585 -148 -295 -156 -340 -73 -411 l30 -25 -56 -165 c-54 -158
-57 -164 -82 -161 -42 5 -93 -17 -118 -51 -53 -73 -196 -752 -196 -933 0 -73
4 -89 33 -145 22 -44 48 -75 81 -100 85 -65 117 -69 514 -69 194 0 352 -3 352
-7 -1 -5 -7 -35 -15 -68 -17 -69 -19 -181 -5 -310 13 -123 58 -208 180 -339
65 -70 142 -124 234 -165 l81 -36 2680 0 2680 0 75 33 c130 57 219 125 304
232 118 149 124 166 133 371 5 135 2 180 -24 272 -4 16 18 17 370 17 411 0
440 3 524 61 75 52 133 160 133 247 0 26 -18 144 -39 263 -154 850 -401 1494
-756 1967 -88 118 -276 317 -361 383 l-54 41 0 139 c0 158 -23 281 -66 355
-14 24 -74 89 -132 144 -131 123 -147 129 -358 137 l-151 6 84 101 c307 366
622 835 723 1073 67 160 73 224 35 410 -80 393 -393 1143 -718 1718 -146 258
-160 273 -251 263 l-44 -5 -83 126 c-46 69 -91 136 -102 148 -19 21 -19 22 2
50 26 35 36 89 23 124 -26 66 -287 384 -471 573 -277 283 -506 454 -781 584
-236 112 -395 151 -635 157 -88 2 -171 2 -185 -1z m-58 -1495 c98 -21 156 -80
178 -179 15 -68 9 -368 -9 -423 -31 -98 -129 -151 -266 -145 -156 6 -237 79
-250 224 -12 119 0 353 18 394 52 113 176 161 329 129z m592 -18 c20 -21 21
-30 24 -339 2 -242 -1 -323 -11 -342 -28 -55 -144 -64 -193 -15 -24 24 -24 26
-24 234 0 208 0 210 -22 222 -52 26 -68 50 -68 100 0 43 4 51 35 76 19 15 60
43 92 61 48 27 66 32 102 29 26 -3 52 -13 65 -26z m21 -1511 l120 -6 -100 -3
c-150 -3 -224 -34 -288 -122 -15 -20 -32 -57 -39 -83 l-12 -46 -87 0 -87 0 -7
39 c-4 22 -20 61 -37 86 -58 88 -142 124 -297 127 l-96 2 115 6 c161 8 671 9
815 0z m-1855 -182 c-11 -24 -20 -58 -20 -75 l0 -33 -110 0 -110 0 0 44 0 44
123 30 c67 17 125 31 129 31 4 1 -2 -18 -12 -41z m3028 7 l112 -27 0 -44 0
-44 -110 0 -110 0 0 29 c0 16 -7 48 -15 71 -18 51 -18 50 -2 46 6 -3 63 -16
125 -31z m-3538 -207 c1 -85 11 -193 26 -275 l6 -33 -50 0 c-62 0 -98 13 -135
48 -53 50 -60 74 -58 207 l1 70 98 37 c53 20 100 37 105 37 4 1 7 -41 7 -91z
m4037 52 l92 -34 3 -85 c3 -97 -8 -140 -49 -183 -37 -40 -81 -58 -143 -58
l-51 0 6 33 c17 99 25 183 25 271 0 74 3 97 13 94 6 -3 53 -20 104 -38z
m-1982 -255 c37 -167 162 -299 320 -340 48 -12 129 -15 440 -15 421 0 448 3
518 60 66 56 91 112 97 218 l5 94 98 1 c116 2 111 14 67 -160 -117 -452 -408
-829 -823 -1065 -403 -230 -937 -273 -1389 -112 -329 118 -633 355 -830 649
-130 194 -237 456 -264 648 l-6 48 98 -3 99 -3 6 -90 c3 -49 11 -103 18 -119
21 -51 68 -101 123 -132 l53 -29 398 -3 c335 -2 408 0 459 13 157 40 282 167
318 321 7 27 14 55 16 62 3 9 25 12 86 10 l82 -3 11 -50z m-555 -1635 c281
-68 640 -68 918 0 46 11 85 20 86 20 2 0 4 -22 5 -50 l1 -50 -571 0 -571 0 6
23 c3 12 6 37 6 55 0 27 3 32 18 28 9 -3 55 -15 102 -26z m2751 -736 l34 -35
0 -1334 0 -1334 -34 -35 -35 -36 -2249 0 -2249 0 -34 34 -34 34 -2 1109 c-2
609 -3 1211 -3 1336 l0 229 37 34 38 34 2248 0 2248 0 35 -36z m-5231 -2719
l0 -85 -39 0 c-50 0 -71 27 -71 87 0 54 26 83 75 83 l35 0 0 -85z m5970 65
c14 -14 20 -33 20 -63 0 -54 -22 -87 -58 -87 l-27 0 0 85 c0 81 1 85 23 85 12
0 31 -9 42 -20z"/>
<path d="M4802 8448 c-13 -13 -18 -281 -6 -312 7 -19 45 -21 62 -4 8 8 12 58
12 158 0 149 -5 170 -40 170 -9 0 -21 -5 -28 -12z"/>
<path d="M3614 3391 c-22 -24 -46 -41 -59 -41 -31 0 -54 -28 -34 -41 8 -5 20
-7 27 -4 8 3 24 2 38 -1 23 -6 23 -8 26 -133 l3 -126 25 0 25 0 3 184 c1 110
-1 188 -7 194 -6 6 -23 -5 -47 -32z"/>
<path d="M4895 3391 c-21 -23 -46 -41 -55 -41 -21 0 -57 -26 -48 -36 4 -4 26
-8 49 -9 23 -1 45 -9 50 -16 5 -8 9 -61 9 -119 -1 -58 -1 -111 -1 -118 1 -8
10 -12 24 -10 22 3 22 5 25 187 1 102 -2 189 -7 194 -5 5 -24 -8 -46 -32z"/>
<path d="M5710 3390 c-20 -26 -40 -40 -55 -40 -26 0 -50 -24 -40 -40 4 -7 17
-9 28 -6 12 3 32 3 44 0 22 -6 23 -11 25 -133 l3 -126 25 0 25 0 0 189 c0 132
-3 190 -11 193 -7 2 -26 -14 -44 -37z"/>
<path d="M3944 3402 c-41 -34 -54 -76 -54 -167 0 -134 41 -195 130 -195 96 0
140 64 140 200 0 83 -7 105 -49 153 -22 24 -32 27 -85 27 -43 -1 -67 -6 -82
-18z m112 -30 c12 -9 27 -28 34 -41 16 -31 15 -172 -1 -203 -45 -85 -131 -52
-141 54 -9 88 5 158 36 185 32 27 44 28 72 5z"/>
<path d="M4408 3397 c-42 -35 -51 -64 -51 -162 0 -137 40 -195 133 -195 93 0
134 59 134 195 0 139 -33 185 -134 185 -42 0 -61 -5 -82 -23z m107 -19 c41
-18 55 -57 55 -149 0 -73 -3 -86 -26 -116 -26 -34 -51 -41 -85 -23 -33 18 -49
64 -49 140 0 95 22 141 77 159 1 1 14 -4 28 -11z"/>
<path d="M5211 3383 c-35 -42 -46 -96 -38 -187 6 -77 22 -111 62 -136 69 -43
154 -19 189 52 23 45 22 209 -1 246 -31 50 -53 62 -120 62 -59 0 -63 -2 -92
-37z m139 -21 c45 -46 54 -189 15 -248 -31 -47 -100 -40 -124 13 -6 13 -11 64
-11 113 0 85 1 89 31 119 38 38 53 39 89 3z"/>
<path d="M6044 3403 c-41 -33 -54 -76 -54 -171 0 -98 13 -137 57 -172 34 -27
105 -27 148 0 47 29 60 69 60 182 0 93 -1 98 -31 135 -30 36 -34 38 -95 41
-49 1 -69 -2 -85 -15z m125 -44 c30 -30 31 -34 31 -119 0 -98 -10 -131 -46
-151 -62 -33 -114 31 -114 139 0 72 18 122 51 146 33 22 43 20 78 -15z"/>
<path d="M6512 3404 c-41 -29 -55 -72 -55 -169 0 -138 40 -195 136 -195 45 0
54 4 87 39 32 34 38 47 44 104 11 112 -9 188 -58 221 -33 21 -124 21 -154 0z
m102 -25 c44 -20 59 -64 55 -163 -4 -82 -6 -89 -32 -112 -38 -32 -63 -30 -98
7 -27 29 -29 36 -29 118 1 93 12 125 51 147 29 16 24 16 53 3z"/>
<path d="M4087 2769 c-14 -18 -45 -42 -69 -53 -23 -12 -42 -25 -41 -31 1 -5
24 -12 50 -15 l48 -5 5 -125 5 -125 25 0 25 0 0 189 c0 206 -4 221 -48 165z"/>
<path d="M4916 2785 c-9 -9 -21 -25 -26 -35 -5 -10 -29 -25 -52 -32 -58 -20
-57 -42 2 -46 24 -2 48 -9 52 -15 5 -7 8 -59 8 -117 -1 -58 -1 -111 -1 -118 1
-8 10 -12 24 -10 22 3 22 5 25 187 1 102 -2 189 -6 193 -6 6 -16 2 -26 -7z"/>
<path d="M6666 2785 c-9 -9 -21 -25 -26 -35 -5 -10 -29 -25 -52 -32 -59 -20
-56 -42 4 -46 l47 -3 3 -127 3 -127 25 0 25 0 3 184 c1 102 -2 189 -6 193 -6
6 -16 2 -26 -7z"/>
<path d="M3588 2763 c-37 -39 -48 -74 -48 -152 0 -97 8 -128 45 -167 29 -31
38 -34 86 -34 100 0 139 56 139 195 0 135 -38 185 -139 185 -49 0 -61 -4 -83
-27z m137 -39 c28 -30 40 -101 30 -173 -19 -136 -146 -133 -157 4 -7 86 5 155
32 177 31 25 67 23 95 -8z"/>
<path d="M4414 2772 c-46 -37 -57 -68 -57 -165 0 -102 13 -140 59 -176 36 -29
112 -29 148 0 47 37 61 75 60 174 0 99 -14 140 -58 169 -34 22 -124 21 -152
-2z m111 -28 c30 -12 45 -60 45 -148 0 -77 -2 -87 -26 -116 -36 -42 -79 -39
-111 9 -19 28 -23 48 -23 107 0 78 8 111 35 137 17 17 51 22 80 11z"/>
<path d="M5214 2755 c-26 -27 -34 -47 -40 -91 -7 -64 1 -151 18 -189 28 -61
138 -87 192 -44 45 35 56 70 56 169 0 96 -6 118 -48 163 -23 24 -33 27 -85 27
-55 0 -62 -3 -93 -35z m128 -16 c45 -24 65 -160 34 -234 -27 -64 -101 -72
-131 -15 -20 39 -20 181 0 220 21 40 56 51 97 29z"/>
<path d="M5688 2763 c-42 -45 -48 -67 -48 -163 0 -79 3 -95 25 -130 31 -49 51
-60 113 -60 87 0 132 65 132 191 0 84 -9 117 -45 155 -30 31 -37 34 -92 34
-52 0 -62 -3 -85 -27z m144 -47 c14 -17 18 -41 18 -117 0 -88 -2 -98 -25 -123
-31 -33 -69 -34 -99 -1 -57 61 -47 227 16 265 35 21 59 15 90 -24z"/>
<path d="M6162 2772 c-42 -32 -55 -71 -55 -167 0 -99 13 -138 59 -174 33 -26
104 -28 143 -5 49 29 66 75 65 178 0 100 -14 141 -58 170 -34 22 -124 21 -154
-2z m114 -30 c33 -23 44 -58 44 -143 0 -79 -2 -90 -26 -118 -36 -43 -75 -42
-108 2 -23 30 -26 44 -26 111 0 106 25 156 80 156 14 0 30 -4 36 -8z"/>
<path d="M3613 2132 c-18 -22 -45 -43 -65 -48 -50 -15 -43 -38 14 -42 l47 -3
3 -127 3 -127 25 0 25 0 0 189 c0 125 -4 191 -11 193 -6 2 -24 -14 -41 -35z"/>
<path d="M4435 2136 c-16 -21 -45 -42 -71 -52 -25 -9 -43 -22 -41 -28 2 -6 26
-13 53 -16 l49 -5 5 -125 c5 -120 6 -125 28 -128 12 -2 22 0 22 5 1 15 1 358
1 371 -1 22 -19 13 -46 -22z"/>
<path d="M5713 2132 c-18 -22 -45 -43 -65 -48 -49 -14 -43 -38 12 -44 l45 -5
5 -125 5 -125 25 0 25 0 0 189 c0 125 -4 191 -11 193 -6 2 -24 -14 -41 -35z"/>
<path d="M3946 2139 c-44 -35 -56 -70 -56 -164 0 -136 39 -195 129 -195 98 0
141 56 141 186 0 138 -39 194 -135 194 -38 0 -60 -6 -79 -21z m109 -25 c30
-12 47 -64 47 -145 0 -108 -24 -149 -86 -149 -53 0 -82 92 -67 207 11 76 50
108 106 87z"/>
<path d="M4758 2137 c-42 -36 -52 -65 -52 -164 0 -103 17 -149 65 -177 39 -23
110 -21 143 5 47 37 60 75 60 174 0 138 -35 185 -136 185 -40 0 -59 -5 -80
-23z m127 -34 c27 -26 35 -59 35 -140 0 -66 -3 -80 -26 -110 -33 -44 -72 -45
-108 -2 -23 27 -26 39 -26 109 0 114 23 160 80 160 16 0 36 -7 45 -17z"/>
<path d="M5220 2132 c-38 -39 -54 -101 -47 -190 9 -117 46 -162 138 -162 32 0
55 6 73 21 45 35 56 70 56 169 0 99 -11 134 -56 169 -20 15 -41 21 -81 21 -47
0 -59 -4 -83 -28z m135 -36 c42 -42 47 -191 8 -244 -29 -39 -75 -41 -108 -6
-23 25 -25 35 -25 116 0 89 14 140 42 151 29 12 60 6 83 -17z"/>
<path d="M6046 2139 c-45 -35 -56 -70 -56 -169 0 -99 11 -134 56 -169 31 -24
104 -28 143 -8 54 27 81 126 67 241 -6 44 -14 64 -40 91 -30 32 -38 35 -88 35
-41 0 -62 -5 -82 -21z m129 -45 c23 -25 25 -35 25 -124 0 -90 -2 -99 -25 -124
-36 -39 -81 -33 -112 13 -42 62 -26 221 24 250 31 18 63 12 88 -15z"/>
<path d="M6518 2145 c-44 -24 -63 -78 -62 -175 1 -129 43 -190 131 -190 98 0
138 56 137 194 0 100 -14 141 -58 170 -31 20 -111 21 -148 1z m117 -42 c27
-26 35 -60 35 -143 0 -70 -3 -82 -26 -109 -36 -43 -75 -42 -108 2 -23 30 -26
44 -26 111 0 75 16 130 44 148 20 13 64 8 81 -9z"/>
</g>
</svg>
